<?xml version="1.0" encoding="utf-8"?>
<!-- Generator: Adobe Illustrator 15.1.0, SVG Export Plug-In . SVG Version: 6.00 Build 0)  -->
<!DOCTYPE svg PUBLIC "-//W3C//DTD SVG 1.1//EN" "http://www.w3.org/Graphics/SVG/1.1/DTD/svg11.dtd">
<svg version="1.1" id="Calque_1" xmlns="http://www.w3.org/2000/svg" xmlns:xlink="http://www.w3.org/1999/xlink" x="0px" y="0px"
	 width="764.531px" height="200px" viewBox="-313.221 -81.834 764.531 200" enable-background="new -313.221 -81.834 764.531 200"
	 xml:space="preserve">
<g>
	<g>
		<path fill="#006FB7" d="M22.185,105.873l-0.614-0.054c-0.105-0.931-0.194-2.039-1.108-3.17c-0.809-0.984-2.015-1.552-3.283-1.552
			c-1.917,0-3.778,1.33-3.778,2.996c0,1.417,0.787,1.871,3.743,3.564c2.41,1.384,4,2.628,4,5.024c0,3.056-2.791,5.402-6.795,5.402
			c-2.929,0-5.006-1.157-6.574-2.033l0.982-4.408l0.581,0.108v0.908c0,3.792,3.542,4.89,5.333,4.89c2.602,0,4.586-1.839,4.586-3.473
			c0-1.725-1.563-2.596-4.2-4.1c-2.05-1.157-3.542-2.12-3.542-4.58c0-2.77,2.147-4.836,5.752-4.836c2.926,0,4.813,1.158,5.527,1.612
			L22.185,105.873z"/>
		<path fill="#006FB7" d="M31.1,107.658l2.991,0.135l-0.292,0.509h-2.604c-0.065,0-0.327,0.205-0.327,0.205l-1.168,2.429
			c-0.327,0.816-0.946,2.374-1.206,3.05c0,0.027-0.909,1.898-0.909,2.797c0,0.367,0.1,0.681,0.52,0.681
			c1.136,0,3.091-0.989,3.932-1.979l0.555,0.228c-1.295,1.639-3.445,2.348-5.068,2.348c-0.487,0-1.817-0.119-1.817-1.185
			c0-0.763,0.717-2.548,0.812-2.77l2.242-5.598c-1.236-0.228-1.496-0.228-2.177-0.228v-0.595h2.463
			c0.454-0.849,0.722-1.492,1.076-2.461l1.882-0.167L31.1,107.658z"/>
		<path fill="#006FB7" d="M47.022,115.451c-1.782,1.472-3.77,2.715-6.241,2.715c-2.336,0-3.6-1.157-3.6-3.137
			c0-3.927,4-7.577,8.191-7.577c2.05,0,2.731,0.59,2.731,1.498c0,0.876-0.489,1.726-3.64,3.164
			c-1.561,0.703-3.805,1.558-5.005,1.974c-0.035,0.174-0.1,0.596-0.1,0.931c0,0.768,0.454,2.261,2.082,2.261
			c1.041,0,2.823-0.395,5.133-2.293L47.022,115.451z M46.114,109.042c0-0.648-0.779-0.989-1.333-0.989
			c-0.809,0-2.204,0.476-3.085,1.244c-1.501,1.298-1.955,3.115-2.183,4.153C44.491,111.584,46.114,110.48,46.114,109.042z"/>
		<path fill="#006FB7" d="M51.841,112.817c0,0.168,0.26,0.168,1.555,0.168c0.681,0,2.544,0.054,3.291,0.054
			c0.194,0,0.427-0.027,0.427-0.2c0-0.449,0-0.508-0.073-0.562c-0.065-0.113-0.122-0.113-0.681-0.113
			c-1.75-0.055-1.982-0.087-3.71-0.087c-0.422,0-0.809,0-0.809,0.2V112.817z"/>
		<path fill="#006FB7" d="M57.585,117.149l1.723-0.087c0.714-0.021,1.233-0.454,2.242-1.384c6.504-6.015,7.899-7.172,16.937-15.003
			h0.584l-4.722,15.489c-0.228,0.79,0.752,0.957,1.368,0.957h1.817l-0.195,0.536h-9.686l0.232-0.536l1.785-0.026
			c1.333-0.033,1.75-0.313,2.175-1.726l1.336-4.354c-0.649,0.032-3.378-0.087-3.932-0.087c-0.195,0-0.649,0-1.469,0.027
			c-0.841,0.763-6.463,5.619-6.463,5.933c0,0.281,1.041,0.281,1.331,0.281h2.147l-0.127,0.562c-0.782,0.032-3.578-0.141-3.899-0.141
			c-0.198,0-1.661,0.055-1.982,0.055h-1.428L57.585,117.149z M73.407,110.427c1.293-3.791,1.726-5.003,2.077-6.133l-0.06-0.055
			c-2.894,2.261-4.554,3.846-7.058,6.241c0.354,0,2.245-0.054,2.699-0.054H73.407z"/>
		<path fill="#006FB7" d="M97.037,115.711c-1.039,1.071-2.305,2.293-4.576,2.293c-0.622,0-1.758-0.054-1.758-1.304
			c0-0.957,0.941-2.904,1.461-3.985c0.557-1.131,1.368-2.655,1.368-3.505c0-0.454-0.357-0.931-0.908-0.931
			c-1.104,0-2.953,1.136-4.159,2.18c-1.855,1.612-2.407,2.938-3.997,7.204h-1.894c0.752-2.065,1.525-4.126,2.445-6.128
			c0.222-0.486,1.065-2.434,1.065-2.801c0-0.422-0.617-0.455-0.876-0.477l-1.336-0.032l0.194-0.509h1.758
			c0.157,0,0.579-0.026,1.006-0.086c0.422-0.032,0.806-0.055,0.941-0.055c0.422,0,0.557,0.141,0.557,0.363
			c0,0.281-0.064,0.508-0.746,2.374l0.064,0.064c1.461-1.249,3.478-2.802,5.69-2.802c1.974,0,2.174,1.299,2.174,1.861
			c0,1.243-1.493,4.04-1.688,4.402c-0.557,1.021-1.136,2.406-1.136,2.769c0,0.287,0.26,0.682,0.611,0.682
			c1.011,0,2.276-0.963,3.218-1.86L97.037,115.711z"/>
		<path fill="#006FB7" d="M115.853,115.711c-1.044,1.071-2.31,2.293-4.581,2.293c-0.616,0-1.752-0.054-1.752-1.304
			c0-0.957,0.941-2.904,1.46-3.985c0.558-1.131,1.363-2.655,1.363-3.505c0-0.454-0.352-0.931-0.903-0.931
			c-1.104,0-2.958,1.136-4.159,2.18c-1.86,1.612-2.412,2.938-4.002,7.204h-1.888c0.752-2.065,1.525-4.126,2.439-6.128
			c0.222-0.486,1.07-2.434,1.07-2.801c0-0.422-0.616-0.455-0.876-0.477l-1.33-0.032l0.194-0.509h1.752
			c0.157,0,0.579-0.026,1.007-0.086c0.422-0.032,0.806-0.055,0.94-0.055c0.422,0,0.552,0.141,0.552,0.363
			c0,0.281-0.06,0.508-0.746,2.374l0.064,0.064c1.472-1.249,3.483-2.802,5.689-2.802c1.979,0,2.186,1.299,2.186,1.861
			c0,1.243-1.504,4.04-1.698,4.402c-0.552,1.021-1.136,2.406-1.136,2.769c0,0.287,0.26,0.682,0.616,0.682
			c1.006,0,2.271-0.963,3.213-1.86L115.853,115.711z"/>
		<path fill="#006FB7" d="M130.082,115.451c-1.784,1.472-3.77,2.715-6.241,2.715c-2.336,0-3.602-1.157-3.602-3.137
			c0-3.927,3.996-7.577,8.188-7.577c2.045,0,2.727,0.59,2.727,1.498c0,0.876-0.487,1.726-3.635,3.164
			c-1.558,0.703-3.808,1.558-5.003,1.974c-0.038,0.174-0.103,0.596-0.103,0.931c0,0.768,0.454,2.261,2.077,2.261
			c1.044,0,2.834-0.395,5.138-2.293L130.082,115.451z M129.174,109.042c0-0.648-0.779-0.989-1.331-0.989
			c-0.811,0-2.206,0.476-3.082,1.244c-1.504,1.298-1.958,3.115-2.186,4.153C127.551,111.584,129.174,110.48,129.174,109.042z"/>
	</g>
</g>
<g>
	<rect x="121.548" y="16.199" fill="#006FB7" width="120.91" height="1.352"/>
	<rect x="-103.523" y="16.199" fill="#006FB7" width="120.911" height="1.352"/>
</g>
<g>
	<g>
		<path fill="#006FB7" d="M100.065-49.17c-0.854-1.179-1.796-2.153-2.693-2.867c-4.229-3.358-7.794-10.297-8.47-11.593
			c-0.097-0.181-0.249,0-0.249,0s-4.965,8.169-9.724,12.166c-3.667,3.08-22.021,14.579-33.124,29.403
			C24.018,7.01,20.954,37.7,20.954,37.7l1.187-0.055c0,0,2.653-13.213,11.985-28.575c14.908-24.562,34.895-31.777,49.179-35.057
			c2.937-5.644,5.501-9.476,9.703-15.084C95.122-43.908,97.534-46.617,100.065-49.17z"/>
	</g>
	<path fill="#006FB7" d="M140.515-81.75c-0.103-0.189-0.254,0-0.254,0s-4.965,8.169-9.725,12.174
		c-3.667,3.078-22.018,14.57-33.126,29.4c-21.78,29.07-24.841,59.758-24.841,59.758l1.179-0.055c0,0,2.655-13.21,11.985-28.567
		c25.544-42.067,63.165-29.097,68.319-44.766c2.66-8.107-1.487-13.518-5.062-16.355C144.755-73.516,141.191-80.45,140.515-81.75z"/>
</g>
<g>
	<path fill="#006FB7" d="M-12.186,77.225c3.128-3.169,3.069-8.881,3.018-13.488l-0.016-1.579v-5.517
		c0-6.426,0.095-9.812-6.785-10.515v-0.687c0,0,12.667,0,12.877,0c0,0.156,0,0.682,0,0.682c-4.321,0.433-4.27,3.612-4.465,10.508
		l-0.287,11.521c-0.184,8.999-4.608,13.564-13.143,13.564c-4.486,0-7.853-1.125-10.019-3.337c-3.25-3.337-3.202-8.421-3.223-11.439
		l0.021-1.104V54.065c-0.143-5.446,0.216-7.085-5.554-7.944v-0.688h15.652v0.682c-6.114,0.898-5.977,2.012-5.977,7.939v10.779
		l-0.011,0.298c-0.322,6.208,1.295,9.545,2.918,11.26c1.96,2.066,5.046,3.115,8.651,3.115
		C-15.812,79.513-13.687,78.739-12.186,77.225z"/>
	<path fill="#006FB7" d="M301.074,45.455l-11.173-0.011v0.736l0.188,0.021c5.128,0.546,5.29,2.006,5.29,9.659v16.582
		c-0.125,5.139-0.173,6.874-5.631,7.724l-0.173,0.026v0.785h16.188v-0.785l-0.179-0.026c-6.154-0.974-6.338-1.958-6.338-7.729
		v-8.384c0.362,0.033,2.428,0.233,2.428,0.233c2.482,0.118,4.619,0.222,6.02,3.461c0.963,2.169,3.407,6.804,6.522,10.417
		c2.45,2.823,5.598,2.969,9.941,3.158l1.395,0.07l0.119-0.676l-0.173-0.174c-7.513-1.85-11.941-10.465-15.489-17.388l-0.141-0.286
		c0.016,0.064-0.141-0.185-0.26-0.379h0.011c3.97-1.958,5.813-4.673,5.813-8.54c0-1.249-0.633-3.315-2.428-5.052
		C311.242,47.197,307.749,45.218,301.074,45.455z M308.441,49.782c1.438,1.428,2.174,3.196,2.174,5.257
		c0,5.825-6.966,8.075-11.357,8.129c0-0.411,0-16.214,0-16.614C302.086,46.521,305.98,47.349,308.441,49.782z"/>
	<g>
		<path fill="#006FB7" d="M-238.572,45.439h-14.813v0.795l0.176,0.027c5.111,0.789,5.141,2.174,5.232,6.766l0.03,1.006v18.421
			l-0.03,0.995c-0.097,4.587-0.122,5.972-5.232,6.767l-0.176,0.026v0.79h25.928l2.683-9.74l-0.605-0.314l-0.227,0.417
			c-3.438,6.35-4.73,8.729-11.739,8.172l-5.887-0.486c-0.57-2.499-0.57-5.241-0.57-7.886V52.94c0-4.554,0.227-5.905,5.26-6.685
			l0.184-0.032v-0.79h-0.211V45.439z"/>
	</g>
	<g>
		<path fill="#006FB7" d="M396.62,45.439h-14.819v0.795l0.179,0.027c5.11,0.789,5.144,2.174,5.24,6.766l0.027,1.006v18.421
			l-0.027,0.995c-0.097,4.587-0.13,5.972-5.24,6.767l-0.179,0.026v0.79h25.938l2.672-9.74l-0.601-0.314l-0.222,0.417
			c-3.445,6.35-4.727,8.729-11.741,8.172l-5.89-0.486c-0.568-2.499-0.568-5.241-0.568-7.886V52.94c0-4.554,0.222-5.905,5.263-6.685
			l0.173-0.032v-0.79h-0.205V45.439z"/>
	</g>
	<g>
		<path fill="#006FB7" d="M-195.937,45.439h-14.816v0.795l0.178,0.027c5.117,0.789,5.144,2.18,5.233,6.771l0.021,1v18.421
			l-0.021,0.984c-0.095,4.598-0.116,5.982-5.233,6.777l-0.178,0.026v0.79h15.024v-0.79l-0.176-0.026
			c-5.111-0.795-5.146-2.18-5.241-6.767l-0.021-1V54.022l0.021-0.995c0.1-4.597,0.13-5.977,5.241-6.771l0.176-0.021v-0.795H-195.937
			z"/>
	</g>
	<path fill="#006FB7" d="M-140.447,45.439h-11.844v0.795l0.17,0.032c5.095,1.033,6.352,2.499,6.403,7.442l0.054,3.91
		c0,0-0.021,14.219-0.027,15.203l-0.005-0.006c-8.834-9.254-25.62-26.874-25.958-27.296c0.005,0,0.011-0.011,0.011-0.011
		c0-0.076-0.476-0.076-7.331-0.076h-0.211v0.79l0.154,0.049c5.919,1.492,6.171,3.742,6.171,8.691v7.853l0.016,5.312
		c0,8.059-0.505,11.406-5.549,12.077l-0.184,0.026v0.801h13.275v-0.795l-0.159-0.038c-5.49-1.266-6.009-3.158-6.009-11.438
		l0.021-5.685c0,0,0-8.675,0-9.633c0.682,0.72,9.486,10.055,9.486,10.055c5.56,5.857,11.309,11.915,17.169,18.432l0.089,0.098
		l0.603-0.157l-0.011-11.2l0.027-6.036v-2.152c-0.005-4.283-0.011-7.983,0.265-10.417l0.067-0.595
		c0.328-3.023,0.498-4.694,3.345-5.182l0.17-0.032v-0.816H-140.447z"/>
	<path fill="#006FB7" d="M225.648,45.439h-11.844v0.795l0.173,0.032c5.095,1.033,6.35,2.499,6.403,7.442l0.055,3.91
		c0,0-0.022,14.219-0.027,15.203l-0.006-0.006c-8.837-9.254-25.619-26.874-25.96-27.296c0.011,0,0.011-0.011,0.011-0.011
		c0-0.076-0.476-0.076-7.328-0.076h-0.211v0.79l0.151,0.049c5.922,1.492,6.176,3.742,6.176,8.691v7.853l0.012,5.312
		c0,8.059-0.504,11.406-5.55,12.077l-0.184,0.026v0.801h13.277v-0.795l-0.156-0.038c-5.495-1.266-6.015-3.158-6.015-11.438
		l0.021-5.685c0,0,0-8.675,0-9.633c0.682,0.72,9.486,10.055,9.486,10.055c5.561,5.857,11.314,11.915,17.172,18.432l0.092,0.098
		l0.601-0.157l-0.011-11.2l0.027-6.036v-2.152c-0.006-4.283-0.011-7.983,0.265-10.417l0.07-0.595
		c0.324-3.023,0.498-4.694,3.343-5.182l0.173-0.032v-0.816H225.648z"/>
	<g>
		<path fill="#006FB7" d="M-107.398,45.439h-14.816v0.795l0.173,0.032c5.122,0.79,5.151,2.18,5.238,6.771l0.024,0.995v18.432
			l-0.024,0.984c-0.092,4.598-0.116,5.982-5.238,6.771l-0.173,0.027v0.795h15.027v-0.795l-0.184-0.027
			c-5.111-0.789-5.138-2.185-5.227-6.771l-0.027-0.995V54.022l0.027-0.989c0.095-4.598,0.116-5.977,5.227-6.767l0.184-0.032v-0.795
			H-107.398z"/>
	</g>
	<g>
		<path fill="#006FB7" d="M37.836,45.444H13.163v0.801l0.176,0.027c5.108,0.789,5.135,2.174,5.23,6.766l0.021,1.006v18.421
			l-0.021,0.995c-0.1,4.587-0.122,5.982-5.23,6.771l-0.176,0.027v0.795h25.779l0.046-0.151c1.006-3.435,1.49-6.522,1.539-10.006
			l0.005-0.216h-0.698l-0.027,0.173c-1.182,6.35-4.078,8.94-10.003,8.94c-2.785,0-4.687-0.547-5.792-1.683
			c-1.146-1.157-1.284-2.769-1.284-4.289c0-0.243,0.005-0.486,0.005-0.729l0.005-0.676c0,0,0-8.184,0-8.584c0.381,0,3.694,0,3.694,0
			c3.361,0,6.025,0,6.696,4.479l0.027,0.179h0.725V56.813h-0.725l-0.021,0.194c-0.571,4.283-3.25,4.63-6.701,4.63
			c0,0-3.312,0-3.694,0c0-0.411,0-14.517,0-14.917c0.392,0,5,0,5,0c4.438,0,9.021,0,9.449,6.609l0.016,0.195h0.714l0.135-8.07
			h-0.216V45.444z"/>
	</g>
	<g>
		<path fill="#006FB7" d="M448.616,45.444h-24.679v0.801l0.179,0.027c5.111,0.789,5.144,2.174,5.235,6.766l0.021,1.006v18.421
			l-0.021,0.995c-0.098,4.587-0.124,5.982-5.235,6.771l-0.179,0.027v0.795h25.787l0.044-0.151c1.011-3.435,1.487-6.522,1.541-10.006
			v-0.216h-0.703l-0.032,0.173c-1.168,6.35-4.062,8.94-9.995,8.94c-2.785,0-4.684-0.547-5.798-1.683
			c-1.141-1.157-1.276-2.769-1.276-4.289c0-0.243,0-0.486,0-0.729l0.011-0.676c0,0,0-8.184,0-8.584c0.373,0,3.688,0,3.688,0
			c3.364,0,6.025,0,6.696,4.479l0.032,0.179h0.725V56.813h-0.725l-0.032,0.194c-0.562,4.283-3.245,4.63-6.696,4.63
			c0,0-3.315,0-3.688,0c0-0.411,0-14.517,0-14.917c0.385,0,4.998,0,4.998,0c4.435,0,9.021,0,9.448,6.609l0.011,0.195h0.72
			l0.135-8.07h-0.211V45.444z"/>
	</g>
	<path fill="#006FB7" d="M-313.221,56.781c0-12.716,9.897-25.582,28.811-25.582c6.058,0,10.698,1.292,15.03,3.855
		c0,0-0.259,11.363-0.265,11.569c-0.168,0-0.649,0-0.649,0c-1.395-8.816-6.268-13.916-14.188-13.916
		c-14.173,0-20.842,12.028-20.842,23.207c0,14.403,11.25,24.23,21.561,24.073c6.214-0.092,13.559-3.369,16.498-5.067
		c-0.081,0.486,0.035,1.628-0.287,3.137c-4.221,2.012-11.885,3.439-17.434,3.439C-298.589,81.497-313.221,73.764-313.221,56.781z"/>
	<path fill="#006FB7" d="M-80.467,80.031l-0.176-0.092c-2.504-1.325-10.125-5.354-10.125-16.977
		c0-10.655,7.061-18.103,17.174-18.103c10.035,0,17.318,7.551,17.318,17.945c0,9.822-5.766,17.091-14.692,18.519l-0.294,0.054
		l9.532,5.538c2.855,1.64,5.898,1.958,8.762,2.062c0,0-0.1,0.654-0.105,0.67c-0.011-0.07-1.415,0.309-1.415,0.309
		c-2.258,0.616-4.816,1.319-6.533,1.319c-3.954,0-6.944-2.412-10.406-5.214c-2.055-1.66-4.184-3.374-6.731-4.77l0,0L-80.467,80.031z
		 M-85.516,62.341c0,8.702,4.789,18.102,12.537,18.102c7.515,0,11.447-8.183,11.447-16.273c0-8.783-4.684-18.259-12.25-18.259
		C-81.847,45.904-85.516,54.423-85.516,62.341z"/>
	<path fill="#006FB7" d="M349.48,45.131c-2.867,7.82-5.041,13.927-5.041,13.927l-5.333,14.847c-1.455,4.062-1.558,5.105-5.722,6.349
		v0.779h12.201v-0.779c-2.109-0.356-5.03-0.356-5.03-3.537c0-0.962,0.466-2.368,0.952-3.866c0.844-2.521,1.568-4.657,2.271-6.652
		h11.088c0.854,2.428,1.682,4.592,2.455,6.852c0.486,1.434,1.038,3.023,1.038,3.873c0,2.347-1.654,2.915-3.299,3.337v0.784h13.143
		v-0.784c-3.743-0.784-4.229-2.293-5.484-6.096l-10.46-29.032H349.48z M344.623,63.807l4.63-13.537l4.771,13.537H344.623z"/>
	<g>
		<g>
			<path fill="#006FB7" d="M269.857,45.444h-24.685v0.801l0.179,0.027c5.105,0.789,5.144,2.174,5.235,6.766l0.021,1.006v18.421
				l-0.021,0.995c-0.103,4.587-0.13,5.982-5.235,6.771l-0.179,0.027v0.795h25.782l0.043-0.151c1.012-3.435,1.487-6.522,1.547-10.006
				l0.006-0.216h-0.703l-0.032,0.173c-1.18,6.35-4.073,8.94-10.006,8.94c-2.78,0-4.679-0.547-5.787-1.683
				c-1.146-1.157-1.287-2.769-1.287-4.289c0-0.243,0.011-0.486,0.011-0.729l0.006-0.676c0,0,0-8.184,0-8.584
				c0.373,0,3.693,0,3.693,0c3.364,0,6.02,0,6.69,4.479l0.032,0.179h0.72V56.813h-0.72l-0.026,0.194
				c-0.573,4.283-3.251,4.63-6.696,4.63c0,0-3.32,0-3.693,0c0-0.411,0-14.517,0-14.917c0.384,0,5.002,0,5.002,0
				c4.436,0,9.021,0,9.443,6.609l0.011,0.195h0.725l0.13-8.07h-0.205V45.444z"/>
		</g>
		<polygon fill="#006FB7" points="255.92,46.17 262.193,36.478 264.395,39.03 257.537,46.147 		"/>
	</g>
	<g>
		<path fill="#006FB7" d="M166.849,45.444H142.17v0.801l0.179,0.027c5.105,0.789,5.138,2.174,5.235,6.766l0.021,1.006v18.421
			l-0.021,0.995c-0.103,4.587-0.13,5.982-5.235,6.771l-0.179,0.027v0.795h25.782l0.043-0.151c1.017-3.435,1.493-6.522,1.536-10.006
			l0.011-0.216h-0.703l-0.032,0.173c-1.179,6.35-4.067,8.94-10,8.94c-2.786,0-4.679-0.547-5.793-1.683
			c-1.146-1.157-1.287-2.769-1.287-4.289c0-0.243,0.011-0.486,0.011-0.729l0.011-0.676c0,0,0-8.184,0-8.584c0.373,0,3.688,0,3.688,0
			c3.364,0,6.025,0,6.696,4.479l0.032,0.179h0.714V56.813h-0.714l-0.032,0.194c-0.568,4.283-3.245,4.63-6.696,4.63
			c0,0-3.315,0-3.688,0c0-0.411,0-14.517,0-14.917c0.384,0,4.998,0,4.998,0c4.435,0,9.021,0,9.448,6.609l0.011,0.195h0.72
			l0.135-8.07h-0.211V45.444z"/>
		<polygon fill="#006FB7" points="152.96,46.1 159.19,36.478 161.396,39.03 154.539,46.137 		"/>
	</g>
	<path fill="#006FB7" d="M77.415,56.656c0,14.402,10.032,24.463,24.381,24.463c5.495,0,12.147-1.51,18.751-4.24l0.13-0.055
		l0.027-2.401v-6.165c0-4.306,0.194-6.42,4.521-7.464l0.168-0.043v-0.888h-18.005v0.876l0.179,0.022
		c6.431,0.897,7.695,1.769,7.695,9.778v1.449c0,4.727-2.747,6.917-8.647,6.917c-12.737,0-21.975-10.471-21.975-24.895
		c0-12.645,7.398-21.472,17.988-21.472c7.518,0,12.829,4.857,14.57,13.332l0.032,0.173h0.649l0.254-12.229l-0.141-0.054
		c-4.856-1.774-9.968-2.71-14.792-2.71C90.703,31.053,77.415,40.025,77.415,56.656z"/>
</g>
</svg>
